<svg width="1183" height="1091" xmlns="http://www.w3.org/2000/svg" xmlns:xlink="http://www.w3.org/1999/xlink" overflow="hidden"><defs><clipPath id="clip0"><rect x="1122" y="811" width="1183" height="1091"/></clipPath><clipPath id="clip1"><rect x="1608" y="815" width="695" height="556"/></clipPath><clipPath id="clip2"><rect x="1608" y="815" width="695" height="556"/></clipPath><clipPath id="clip3"><rect x="1608" y="815" width="695" height="556"/></clipPath><clipPath id="clip4"><rect x="1896" y="1485" width="300" height="301"/></clipPath><clipPath id="clip5"><rect x="1896" y="1485" width="300" height="301"/></clipPath><clipPath id="clip6"><rect x="1896" y="1485" width="300" height="301"/></clipPath><clipPath id="clip7"><rect x="1328" y="1509" width="392" height="390"/></clipPath><clipPath id="clip8"><rect x="1328" y="1509" width="392" height="390"/></clipPath><clipPath id="clip9"><rect x="1328" y="1509" width="392" height="390"/></clipPath><clipPath id="clip10"><rect x="1125" y="1232" width="390" height="391"/></clipPath><clipPath id="clip11"><rect x="1125" y="1232" width="390" height="391"/></clipPath><clipPath id="clip12"><rect x="1125" y="1232" width="390" height="391"/></clipPath></defs><g clip-path="url(#clip0)" transform="translate(-1122 -811)"><path d="M0 370 0 351.711C-4.77425e-14 195.793 126.396 69.3972 282.314 69.3972L282.5 69.3972 282.5 0 375 113.076 282.5 226.152 282.5 156.754 282.314 156.754C174.642 156.754 87.3573 244.039 87.3573 351.711L87.3569 370Z" fill="#767171" fill-rule="evenodd" fill-opacity="1" transform="matrix(-1.83697e-16 -1 -1 1.83697e-16 2073 1696)"/><g clip-path="url(#clip1)"><g clip-path="url(#clip2)"><g clip-path="url(#clip3)"><path d="M643.956 491.135 50.0439 491.135C22.4466 491.135 0 468.689 0 441.091L0 114.109C0 86.5114 22.4466 64.0649 50.0439 64.0649L643.945 64.0649C671.543 64.0649 693.989 86.5114 693.989 114.109L693.989 441.091C694 468.689 671.553 491.135 643.956 491.135ZM166.831 391.047 166.831 260.922 233.564 344.332 300.296 260.922 300.296 391.047 367.028 391.047 367.028 164.153 300.296 164.153 233.564 247.563 166.831 164.153 100.099 164.153 100.099 391.036 166.831 391.036ZM613.919 277.6 547.186 277.6 547.186 164.153 480.454 164.153 480.454 277.6 413.722 277.6 513.82 394.376 613.919 277.6Z" fill="#3B3838" fill-rule="nonzero" fill-opacity="1" transform="matrix(1 0 0 1.00144 1608 815)"/></g></g></g><g clip-path="url(#clip4)"><g clip-path="url(#clip5)"><g clip-path="url(#clip6)"><path d="M2159.61 1536.54C2157.4 1531.32 2153.73 1526.9 2149.11 1523.77 2144.48 1520.65 2138.85 1518.81 2132.87 1518.81L2107.87 1518.81 2107.87 1514.5 2071.64 1514.5C2071.81 1513.33 2071.9 1512.12 2071.9 1510.9 2071.9 1496.62 2060.28 1485 2046 1485 2031.72 1485 2020.1 1496.62 2020.1 1510.9 2020.1 1512.12 2020.19 1513.33 2020.36 1514.5L1984.13 1514.5 1984.13 1518.81 1959.13 1518.81C1955.14 1518.81 1951.31 1519.63 1947.84 1521.1 1942.62 1523.31 1938.2 1526.98 1935.07 1531.6 1931.94 1536.23 1930.1 1541.85 1930.1 1547.84L1930.1 1755.98C1930.1 1759.95 1930.92 1763.8 1932.39 1767.28 1934.6 1772.49 1938.27 1776.91 1942.89 1780.04 1947.53 1783.17 1953.15 1785 1959.13 1785L2132.87 1785C2136.85 1785 2140.69 1784.19 2144.16 1782.71 2149.39 1780.51 2153.8 1776.83 2156.93 1772.21 2160.06 1767.59 2161.9 1761.96 2161.9 1755.98L2161.9 1547.84C2161.9 1543.85 2161.09 1540.01 2159.61 1536.54ZM2046 1501.29C2051.3 1501.29 2055.61 1505.6 2055.61 1510.9 2055.61 1512.17 2055.36 1513.38 2054.91 1514.5L2037.1 1514.5C2036.64 1513.38 2036.39 1512.17 2036.39 1510.9 2036.39 1505.6 2040.71 1501.29 2046 1501.29ZM2144.63 1755.98C2144.63 1757.63 2144.3 1759.15 2143.71 1760.55 2142.83 1762.64 2141.32 1764.46 2139.44 1765.74 2137.55 1767 2135.34 1767.73 2132.87 1767.73L1959.13 1767.73C1957.49 1767.73 1955.96 1767.4 1954.56 1766.82 1952.45 1765.93 1950.65 1764.42 1949.37 1762.54 1948.11 1760.66 1947.38 1758.44 1947.37 1755.98L1947.37 1547.84C1947.37 1546.19 1947.7 1544.66 1948.29 1543.26 1949.18 1541.16 1950.68 1539.35 1952.56 1538.08 1954.45 1536.82 1956.66 1536.09 1959.13 1536.08L1984.13 1536.08 1984.13 1539.68C1984.13 1546.43 1989.6 1551.91 1996.37 1551.91L2095.64 1551.91C2102.4 1551.91 2107.87 1546.43 2107.87 1539.68L2107.87 1536.08 2132.86 1536.08C2134.51 1536.08 2136.04 1536.41 2137.44 1537 2139.54 1537.88 2141.35 1539.38 2142.62 1541.27 2143.9 1543.15 2144.63 1545.37 2144.63 1547.84L2144.63 1755.98Z" fill="#4B4B4B" fill-rule="nonzero" fill-opacity="1"/><path d="M1987.49 1585 2006.02 1585 2006.02 1603.53 1987.49 1603.53Z" fill="#4B4B4B" fill-rule="nonzero" fill-opacity="1"/><path d="M2028.14 1585 2104.52 1585 2104.52 1603.53 2028.14 1603.53Z" fill="#4B4B4B" fill-rule="nonzero" fill-opacity="1"/><path d="M1987.49 1639.76 2006.02 1639.76 2006.02 1658.29 1987.49 1658.29Z" fill="#4B4B4B" fill-rule="nonzero" fill-opacity="1"/><path d="M2028.14 1639.76 2104.52 1639.76 2104.52 1658.29 2028.14 1658.29Z" fill="#4B4B4B" fill-rule="nonzero" fill-opacity="1"/><path d="M1987.49 1694.53 2006.02 1694.53 2006.02 1713.06 1987.49 1713.06Z" fill="#4B4B4B" fill-rule="nonzero" fill-opacity="1"/><path d="M2028.14 1694.53 2104.52 1694.53 2104.52 1713.06 2028.14 1713.06Z" fill="#4B4B4B" fill-rule="nonzero" fill-opacity="1"/></g></g></g><g clip-path="url(#clip7)"><g clip-path="url(#clip8)"><g clip-path="url(#clip9)"><path d="M1617.24 1509 1487.66 1509 1477.62 1509 1470.53 1516.09 1372.43 1614.19 1365.34 1621.29 1365.34 1631.33 1365.34 1833.57C1365.34 1869.65 1394.69 1899 1430.77 1899L1617.24 1899C1653.31 1899 1682.66 1869.65 1682.66 1833.57L1682.66 1574.43C1682.66 1538.35 1653.31 1509 1617.24 1509ZM1658.44 1833.57C1658.44 1856.33 1640 1874.77 1617.24 1874.77L1430.77 1874.77C1408 1874.77 1389.56 1856.33 1389.56 1833.57L1389.56 1631.33 1453.33 1631.33C1472.28 1631.33 1487.66 1615.96 1487.66 1596.99L1487.66 1533.23 1617.24 1533.23C1640 1533.23 1658.44 1551.67 1658.44 1574.43L1658.44 1833.57Z" fill="#8E44AD" fill-rule="nonzero" fill-opacity="1"/><path d="M1453.29 1701.86C1449.4 1701.86 1446.53 1704.64 1446.53 1709.08L1446.53 1726.95C1446.53 1727.32 1446.34 1727.51 1445.98 1727.51L1425.42 1727.51C1425.05 1727.51 1424.86 1727.32 1424.86 1726.95L1424.86 1709.08C1424.86 1704.64 1421.99 1701.86 1418.11 1701.86 1414.13 1701.86 1411.26 1704.64 1411.26 1709.08L1411.26 1758.7C1411.26 1763.14 1414.04 1765.92 1418.01 1765.92 1421.91 1765.92 1424.86 1763.14 1424.86 1758.7L1424.86 1740.19C1424.86 1739.82 1425.05 1739.63 1425.42 1739.63L1445.98 1739.63C1446.34 1739.63 1446.53 1739.82 1446.53 1740.19L1446.53 1758.7C1446.53 1763.14 1449.4 1765.92 1453.29 1765.92 1457.26 1765.92 1460.14 1763.14 1460.14 1758.7L1460.14 1709.08C1460.14 1704.64 1457.26 1701.86 1453.29 1701.86Z" fill="#8E44AD" fill-rule="nonzero" fill-opacity="1"/><path d="M1508.19 1702.42 1472.18 1702.42C1468.02 1702.42 1465.33 1704.92 1465.33 1708.53 1465.33 1712.04 1468.02 1714.54 1472.18 1714.54L1482.82 1714.54C1483.2 1714.54 1483.38 1714.73 1483.38 1715.1L1483.38 1758.7C1483.38 1763.05 1486.25 1765.92 1490.14 1765.92 1494.12 1765.92 1496.99 1763.05 1496.99 1758.7L1496.99 1715.1C1496.99 1714.73 1497.17 1714.54 1497.55 1714.54L1508.19 1714.54C1512.35 1714.54 1515.04 1712.04 1515.04 1708.53 1515.04 1704.92 1512.35 1702.42 1508.19 1702.42Z" fill="#8E44AD" fill-rule="nonzero" fill-opacity="1"/><path d="M1571.42 1701.86C1567.35 1701.86 1565.12 1704.08 1563.09 1708.9L1549.94 1739.26 1549.57 1739.26 1536.15 1708.9C1534.02 1704.08 1531.8 1701.86 1527.72 1701.86 1523.19 1701.86 1520.22 1705.01 1520.22 1710.01L1520.22 1759.35C1520.22 1763.52 1522.82 1765.92 1526.52 1765.92 1530.04 1765.92 1532.64 1763.52 1532.64 1759.35L1532.64 1728.98 1533.09 1728.98 1542.91 1751.57C1544.85 1756.02 1546.42 1757.32 1549.57 1757.32 1552.72 1757.32 1554.29 1756.02 1556.24 1751.57L1565.96 1728.98 1566.42 1728.98 1566.42 1759.35C1566.42 1763.52 1568.92 1765.92 1572.62 1765.92 1576.34 1765.92 1578.84 1763.52 1578.84 1759.35L1578.84 1710.01C1578.83 1705.01 1575.96 1701.86 1571.42 1701.86Z" fill="#8E44AD" fill-rule="nonzero" fill-opacity="1"/><path d="M1625.58 1753.24 1603.18 1753.24C1602.81 1753.24 1602.63 1753.06 1602.63 1752.68L1602.63 1709.08C1602.63 1704.73 1599.76 1701.86 1595.88 1701.86 1591.89 1701.86 1589.02 1704.73 1589.02 1709.08L1589.02 1758.52C1589.02 1762.59 1591.7 1765.37 1595.88 1765.37L1625.58 1765.37C1629.75 1765.37 1632.43 1762.87 1632.43 1759.26 1632.43 1755.74 1629.75 1753.24 1625.58 1753.24Z" fill="#8E44AD" fill-rule="nonzero" fill-opacity="1"/></g></g></g><g clip-path="url(#clip10)"><g clip-path="url(#clip11)"><g clip-path="url(#clip12)"><path d="M1413.24 1232 1283.66 1232 1273.62 1232 1266.53 1239.09 1168.43 1337.19 1161.34 1344.29 1161.34 1354.33 1161.34 1556.57C1161.34 1592.65 1190.69 1622 1226.77 1622L1413.24 1622C1449.31 1622 1478.66 1592.65 1478.66 1556.57L1478.66 1297.43C1478.66 1261.35 1449.31 1232 1413.24 1232ZM1454.44 1556.57C1454.44 1579.33 1436 1597.77 1413.24 1597.77L1226.77 1597.77C1204 1597.77 1185.56 1579.33 1185.56 1556.57L1185.56 1354.33 1249.33 1354.33C1268.28 1354.33 1283.66 1338.96 1283.66 1319.99L1283.66 1256.23 1413.24 1256.23C1436 1256.23 1454.44 1274.67 1454.44 1297.43L1454.44 1556.57Z" fill="#27AE60" fill-rule="nonzero" fill-opacity="1"/><path d="M1255.4 1462.5 1265.95 1448.74C1267.09 1447.19 1267.72 1445.53 1267.72 1443.98 1267.72 1440.57 1265.03 1437.67 1261.3 1437.67 1259.12 1437.67 1256.95 1438.7 1255.29 1440.88L1247.12 1451.64 1247.02 1451.64 1238.85 1440.88C1237.19 1438.7 1235.02 1437.67 1232.85 1437.67 1229.13 1437.67 1226.44 1440.57 1226.44 1443.98 1226.44 1445.53 1227.05 1447.19 1228.19 1448.74L1238.74 1462.5 1226.95 1477.92C1225.81 1479.47 1225.19 1481.12 1225.19 1482.68 1225.19 1486.09 1227.88 1488.99 1231.61 1488.99 1233.78 1488.99 1235.96 1487.95 1237.6 1485.78L1247.02 1473.36 1247.12 1473.36 1256.54 1485.78C1258.2 1487.95 1260.37 1488.99 1262.54 1488.99 1266.26 1488.99 1268.95 1486.09 1268.95 1482.68 1268.95 1481.12 1268.33 1479.47 1267.2 1477.92L1255.4 1462.5Z" fill="#27AE60" fill-rule="nonzero" fill-opacity="1"/><path d="M1297.83 1476.36C1295.56 1475.95 1294.52 1474.71 1294.52 1471.82L1294.52 1425.05C1294.52 1420.29 1291.42 1417.39 1287.28 1417.39 1283.04 1417.39 1280.04 1420.29 1280.04 1425.05L1280.04 1473.06C1280.04 1483.3 1283.97 1488.99 1295.45 1488.99L1296.08 1488.99C1301.35 1488.99 1303.63 1486.19 1303.63 1482.68 1303.63 1479.47 1301.97 1477.09 1297.83 1476.36Z" fill="#27AE60" fill-rule="nonzero" fill-opacity="1"/><path d="M1336.74 1457.12 1331.25 1456.5C1325.56 1455.88 1324.33 1454.64 1324.33 1452.36 1324.33 1449.98 1326.19 1448.43 1330.64 1448.43 1334.25 1448.43 1337.67 1449.15 1340.77 1450.61 1342.74 1451.54 1343.88 1451.85 1344.91 1451.85 1348.33 1451.85 1350.6 1449.36 1350.6 1446.16 1350.6 1443.67 1349.16 1441.92 1346.36 1440.46 1342.12 1438.29 1336.74 1437.16 1331.15 1437.16 1318.01 1437.16 1310.46 1443.46 1310.46 1453.29 1310.46 1461.98 1315.94 1467.37 1326.81 1468.6L1332.28 1469.23C1338.19 1469.85 1339.53 1471.09 1339.53 1473.47 1339.53 1476.26 1337.05 1478.13 1331.77 1478.13 1326.91 1478.13 1323.08 1476.57 1319.46 1474.5 1317.81 1473.57 1316.56 1473.16 1315.21 1473.16 1311.9 1473.16 1309.21 1475.75 1309.21 1478.95 1309.21 1481.33 1310.24 1483.19 1312.73 1484.75 1316.87 1487.33 1323.19 1489.51 1331.05 1489.51 1345.22 1489.51 1353.4 1482.58 1353.4 1472.33 1353.4 1463.95 1348.54 1458.47 1336.74 1457.12Z" fill="#27AE60" fill-rule="nonzero" fill-opacity="1"/><path d="M1392.41 1462.5 1402.96 1448.74C1404.1 1447.19 1404.72 1445.53 1404.72 1443.98 1404.72 1440.57 1402.03 1437.67 1398.31 1437.67 1396.13 1437.67 1393.96 1438.7 1392.3 1440.88L1384.13 1451.64 1384.02 1451.64 1375.85 1440.88C1374.2 1438.7 1372.03 1437.67 1369.86 1437.67 1366.13 1437.67 1363.44 1440.57 1363.44 1443.98 1363.44 1445.53 1364.06 1447.19 1365.2 1448.74L1375.75 1462.5 1363.95 1477.92C1362.81 1479.47 1362.2 1481.12 1362.2 1482.68 1362.2 1486.09 1364.89 1488.99 1368.61 1488.99 1370.78 1488.99 1372.96 1487.95 1374.61 1485.78L1384.02 1473.36 1384.13 1473.36 1393.54 1485.78C1395.2 1487.95 1397.37 1488.99 1399.54 1488.99 1403.27 1488.99 1405.96 1486.09 1405.96 1482.68 1405.96 1481.12 1405.34 1479.47 1404.2 1477.92L1392.41 1462.5Z" fill="#27AE60" fill-rule="nonzero" fill-opacity="1"/></g></g></g></g></svg>